<mxfile host="app.diagrams.net" agent="Mozilla/5.0 (Windows NT 10.0; Win64; x64) AppleWebKit/537.36 (KHTML, like Gecko) Chrome/134.0.0.0 Safari/537.36" version="26.1.0" pages="2">
  <diagram name="페이지-1" id="R-REkctEvjujo5MQTXNu">
    <mxGraphModel dx="1793" dy="1073" grid="1" gridSize="10" guides="1" tooltips="1" connect="1" arrows="1" fold="1" page="1" pageScale="1" pageWidth="827" pageHeight="1169" math="0" shadow="0">
      <root>
        <mxCell id="0" />
        <mxCell id="1" parent="0" />
        <mxCell id="936bYsY8uEv5ruH4Q4Xj-16" value="" style="edgeStyle=orthogonalEdgeStyle;rounded=0;orthogonalLoop=1;jettySize=auto;html=1;" edge="1" parent="1" source="936bYsY8uEv5ruH4Q4Xj-1" target="936bYsY8uEv5ruH4Q4Xj-5">
          <mxGeometry relative="1" as="geometry" />
        </mxCell>
        <mxCell id="936bYsY8uEv5ruH4Q4Xj-1" value="시작" style="ellipse;whiteSpace=wrap;html=1;" vertex="1" parent="1">
          <mxGeometry x="410" y="60" width="120" height="80" as="geometry" />
        </mxCell>
        <mxCell id="936bYsY8uEv5ruH4Q4Xj-2" value="" style="shape=stencil(fZbdcgIhDIWfZm8zQAg/17Z9j85U606tdqz9e/tmZ0c0uJ47xP0I5JwEBl59bp8/1kNwn6fj4W39M76ctgM/DCGM++36OJ50NPDjwKvN4bh+PR6+9i/z74/n6ctp9H74nlb4nbmSKZeJCu5vngmZ6jzzNAO7cX8FVKEsBuBKrgKg9oAE8gkCbLeUhEoEQKSUDZDLeWYRKIl8MEDRmHwfyBrBG6Amyu4+kDxxMoB3jhwgYu7TVAsVkFcWCs4CTBEoF4RctKeOxHIf8IXYpikHikAIf+MNUW94AGSSaoAoFIE3AlOyeWU+p2E5S9yfQZcQILVuQOwZdJNoS9Ls3wA5u2XZTIHECqeJ9kDpSaauRiNVcAY1QhdBzeLBli5WazpkSsBLV25uRaqWRyFawTQzRRIQYirJzq5atkBqLfouwqUxLBepthWb10vrWZY6UOAeyKCCtDV625mm9gmUC4Wc3VLJMMIE1BsA2FW9JraVlQB7n3c9oMKhCLEvIM1zBPZ25/umNQ1tVEC2G+fFCC8g398O2hNQuQlVu752DBfA+q0ptnqO5JFmeuIuo9DY7KjY71UxdJV4EntifPWorW++R/dC4t7V3DlIB5cHx2bc7eb3yvX//QNFp+bHDT/+Aw==);lineShape=1;strokeColor=default;" vertex="1" parent="1">
          <mxGeometry x="961.8679608424759" y="365.20868648195665" width="4.672539772115215" height="4.665236216357698" as="geometry" />
        </mxCell>
        <mxCell id="936bYsY8uEv5ruH4Q4Xj-5" value="면 ,물, 스프, 가스레인,냄비" style="shape=hexagon;perimeter=hexagonPerimeter2;whiteSpace=wrap;html=1;fixedSize=1;" vertex="1" parent="1">
          <mxGeometry x="355" y="190" width="230" height="90" as="geometry" />
        </mxCell>
        <mxCell id="936bYsY8uEv5ruH4Q4Xj-7" value="가스레인지에 냄비를 올리고&amp;nbsp;&lt;div&gt;물을 부어 불을 켠다&lt;/div&gt;" style="rounded=0;whiteSpace=wrap;html=1;" vertex="1" parent="1">
          <mxGeometry x="330" y="360" width="260" height="80" as="geometry" />
        </mxCell>
        <mxCell id="936bYsY8uEv5ruH4Q4Xj-8" value="물이 끓는가?" style="rhombus;whiteSpace=wrap;html=1;" vertex="1" parent="1">
          <mxGeometry x="355" y="500" width="200" height="80" as="geometry" />
        </mxCell>
        <mxCell id="936bYsY8uEv5ruH4Q4Xj-9" value="면을 넣고 3분간 더 끓인다" style="rounded=0;whiteSpace=wrap;html=1;" vertex="1" parent="1">
          <mxGeometry x="315" y="640" width="270" height="80" as="geometry" />
        </mxCell>
        <mxCell id="936bYsY8uEv5ruH4Q4Xj-10" value="맛있게 먹는다" style="shape=parallelogram;perimeter=parallelogramPerimeter;whiteSpace=wrap;html=1;fixedSize=1;" vertex="1" parent="1">
          <mxGeometry x="322.5" y="770" width="255" height="100" as="geometry" />
        </mxCell>
        <mxCell id="936bYsY8uEv5ruH4Q4Xj-11" value="종료" style="ellipse;whiteSpace=wrap;html=1;" vertex="1" parent="1">
          <mxGeometry x="335" y="930" width="230" height="100" as="geometry" />
        </mxCell>
        <mxCell id="936bYsY8uEv5ruH4Q4Xj-12" value="물을 끓인다" style="rounded=0;whiteSpace=wrap;html=1;fontFamily=Helvetica;" vertex="1" parent="1">
          <mxGeometry x="690" y="490" width="210" height="100" as="geometry" />
        </mxCell>
        <mxCell id="936bYsY8uEv5ruH4Q4Xj-15" value="" style="endArrow=classic;html=1;rounded=0;entryX=0.5;entryY=0;entryDx=0;entryDy=0;" edge="1" parent="1" target="936bYsY8uEv5ruH4Q4Xj-5">
          <mxGeometry width="50" height="50" relative="1" as="geometry">
            <mxPoint x="470" y="150" as="sourcePoint" />
            <mxPoint x="498" y="181" as="targetPoint" />
          </mxGeometry>
        </mxCell>
        <mxCell id="936bYsY8uEv5ruH4Q4Xj-17" value="" style="endArrow=classic;html=1;rounded=0;" edge="1" parent="1">
          <mxGeometry width="50" height="50" relative="1" as="geometry">
            <mxPoint x="469.5" y="290" as="sourcePoint" />
            <mxPoint x="469.5" y="360" as="targetPoint" />
          </mxGeometry>
        </mxCell>
        <mxCell id="936bYsY8uEv5ruH4Q4Xj-18" value="" style="endArrow=classic;html=1;rounded=0;" edge="1" parent="1">
          <mxGeometry width="50" height="50" relative="1" as="geometry">
            <mxPoint x="459.5" y="440" as="sourcePoint" />
            <mxPoint x="459.5" y="510" as="targetPoint" />
          </mxGeometry>
        </mxCell>
        <mxCell id="936bYsY8uEv5ruH4Q4Xj-19" value="" style="endArrow=classic;html=1;rounded=0;" edge="1" parent="1">
          <mxGeometry width="50" height="50" relative="1" as="geometry">
            <mxPoint x="449.5" y="860" as="sourcePoint" />
            <mxPoint x="449.5" y="930" as="targetPoint" />
          </mxGeometry>
        </mxCell>
        <mxCell id="936bYsY8uEv5ruH4Q4Xj-20" value="" style="endArrow=classic;html=1;rounded=0;" edge="1" parent="1">
          <mxGeometry width="50" height="50" relative="1" as="geometry">
            <mxPoint x="454.5" y="570" as="sourcePoint" />
            <mxPoint x="454.5" y="640" as="targetPoint" />
          </mxGeometry>
        </mxCell>
        <mxCell id="936bYsY8uEv5ruH4Q4Xj-21" value="" style="endArrow=classic;html=1;rounded=0;" edge="1" parent="1">
          <mxGeometry width="50" height="50" relative="1" as="geometry">
            <mxPoint x="454.5" y="710" as="sourcePoint" />
            <mxPoint x="454.5" y="780" as="targetPoint" />
          </mxGeometry>
        </mxCell>
        <mxCell id="936bYsY8uEv5ruH4Q4Xj-22" value="" style="endArrow=classic;html=1;rounded=0;entryX=0;entryY=0.5;entryDx=0;entryDy=0;" edge="1" parent="1" target="936bYsY8uEv5ruH4Q4Xj-12">
          <mxGeometry width="50" height="50" relative="1" as="geometry">
            <mxPoint x="560" y="539.5" as="sourcePoint" />
            <mxPoint x="644.5" y="539.5" as="targetPoint" />
          </mxGeometry>
        </mxCell>
        <mxCell id="936bYsY8uEv5ruH4Q4Xj-23" value="" style="endArrow=classic;html=1;rounded=0;entryX=0.875;entryY=0.35;entryDx=0;entryDy=0;entryPerimeter=0;" edge="1" parent="1" target="936bYsY8uEv5ruH4Q4Xj-8">
          <mxGeometry width="50" height="50" relative="1" as="geometry">
            <mxPoint x="800" y="480" as="sourcePoint" />
            <mxPoint x="530" y="510" as="targetPoint" />
            <Array as="points">
              <mxPoint x="800" y="450" />
              <mxPoint x="530" y="450" />
            </Array>
          </mxGeometry>
        </mxCell>
        <mxCell id="936bYsY8uEv5ruH4Q4Xj-29" value="아니오" style="text;strokeColor=none;align=center;fillColor=none;html=1;verticalAlign=middle;whiteSpace=wrap;rounded=0;" vertex="1" parent="1">
          <mxGeometry x="585" y="510" width="60" height="30" as="geometry" />
        </mxCell>
      </root>
    </mxGraphModel>
  </diagram>
  <diagram id="E3WJYcwOphXLEUmj7Y8_" name="페이지-2">
    <mxGraphModel dx="2876" dy="1226" grid="1" gridSize="10" guides="1" tooltips="1" connect="1" arrows="1" fold="1" page="1" pageScale="1" pageWidth="827" pageHeight="1169" math="0" shadow="0">
      <root>
        <mxCell id="0" />
        <mxCell id="1" parent="0" />
        <mxCell id="CWHaBzjAPPrI5t0wA8sZ-2" value="사작" style="ellipse;whiteSpace=wrap;html=1;" parent="1" vertex="1">
          <mxGeometry x="139" y="60" width="120" height="80" as="geometry" />
        </mxCell>
        <mxCell id="CWHaBzjAPPrI5t0wA8sZ-3" value="1. km -&amp;gt; mile&lt;div&gt;2.mile -&amp;gt; km&lt;/div&gt;&lt;div&gt;3. end&lt;br&gt;중 1개 선택&lt;/div&gt;" style="rounded=0;whiteSpace=wrap;html=1;" parent="1" vertex="1">
          <mxGeometry x="139" y="180" width="120" height="60" as="geometry" />
        </mxCell>
        <mxCell id="CWHaBzjAPPrI5t0wA8sZ-5" value="&lt;font style=&quot;font-size: 9px;&quot;&gt;옵션 1을 선택 했는가?&lt;/font&gt;" style="rhombus;whiteSpace=wrap;html=1;" parent="1" vertex="1">
          <mxGeometry x="140" y="410" width="120" height="80" as="geometry" />
        </mxCell>
        <mxCell id="Ax9v7E1OaU5Le98P53_Z-1" value="킬로미터를 마일로&amp;nbsp;&lt;div&gt;변환한다.&lt;/div&gt;" style="rounded=0;whiteSpace=wrap;html=1;" parent="1" vertex="1">
          <mxGeometry x="260" y="550" width="120" height="60" as="geometry" />
        </mxCell>
        <mxCell id="Ax9v7E1OaU5Le98P53_Z-5" value="마일을 킬로미터로&amp;nbsp;&lt;div&gt;변환 한다.&lt;/div&gt;" style="rounded=0;whiteSpace=wrap;html=1;" parent="1" vertex="1">
          <mxGeometry x="139" y="690" width="120" height="60" as="geometry" />
        </mxCell>
        <mxCell id="Ax9v7E1OaU5Le98P53_Z-7" value="종료" style="ellipse;whiteSpace=wrap;html=1;" parent="1" vertex="1">
          <mxGeometry x="19" y="950" width="120" height="80" as="geometry" />
        </mxCell>
        <mxCell id="Ax9v7E1OaU5Le98P53_Z-8" value="&lt;font style=&quot;font-size: 9px;&quot;&gt;옵션 3을 선택 했는가?&lt;/font&gt;" style="rhombus;whiteSpace=wrap;html=1;" parent="1" vertex="1">
          <mxGeometry x="-101" y="680" width="120" height="80" as="geometry" />
        </mxCell>
        <mxCell id="Ax9v7E1OaU5Le98P53_Z-9" value="&lt;font style=&quot;font-size: 9px;&quot;&gt;옵션 2를&lt;/font&gt;&lt;span style=&quot;font-size: 9px; background-color: transparent; color: light-dark(rgb(0, 0, 0), rgb(255, 255, 255));&quot;&gt;&amp;nbsp;선택 했는가?&lt;/span&gt;" style="rhombus;whiteSpace=wrap;html=1;" parent="1" vertex="1">
          <mxGeometry x="20" y="540" width="120" height="80" as="geometry" />
        </mxCell>
        <mxCell id="Ax9v7E1OaU5Le98P53_Z-11" value="" style="endArrow=classic;html=1;rounded=0;exitX=0;exitY=0.5;exitDx=0;exitDy=0;entryX=0;entryY=0.5;entryDx=0;entryDy=0;" parent="1" source="PnV7mJvf609vmkWvOlgB-5" target="CWHaBzjAPPrI5t0wA8sZ-3" edge="1">
          <mxGeometry width="50" height="50" relative="1" as="geometry">
            <mxPoint x="70" y="860" as="sourcePoint" />
            <mxPoint x="80" y="150" as="targetPoint" />
            <Array as="points">
              <mxPoint x="-250" y="990" />
              <mxPoint x="-250" y="210" />
            </Array>
          </mxGeometry>
        </mxCell>
        <mxCell id="Ax9v7E1OaU5Le98P53_Z-12" value="" style="endArrow=classic;html=1;rounded=0;exitX=0.5;exitY=1;exitDx=0;exitDy=0;entryX=0.5;entryY=0;entryDx=0;entryDy=0;" parent="1" source="CWHaBzjAPPrI5t0wA8sZ-3" target="PnV7mJvf609vmkWvOlgB-1" edge="1">
          <mxGeometry width="50" height="50" relative="1" as="geometry">
            <mxPoint x="-160" y="410" as="sourcePoint" />
            <mxPoint x="-110" y="360" as="targetPoint" />
          </mxGeometry>
        </mxCell>
        <mxCell id="Ax9v7E1OaU5Le98P53_Z-14" value="" style="endArrow=classic;html=1;rounded=0;exitX=0.5;exitY=1;exitDx=0;exitDy=0;" parent="1" source="CWHaBzjAPPrI5t0wA8sZ-2" target="CWHaBzjAPPrI5t0wA8sZ-3" edge="1">
          <mxGeometry width="50" height="50" relative="1" as="geometry">
            <mxPoint x="-110" y="370" as="sourcePoint" />
            <mxPoint x="-60" y="320" as="targetPoint" />
          </mxGeometry>
        </mxCell>
        <mxCell id="Ax9v7E1OaU5Le98P53_Z-15" value="" style="endArrow=classic;html=1;rounded=0;exitX=0;exitY=0.5;exitDx=0;exitDy=0;entryX=0.5;entryY=0;entryDx=0;entryDy=0;" parent="1" source="Ax9v7E1OaU5Le98P53_Z-9" target="Ax9v7E1OaU5Le98P53_Z-8" edge="1">
          <mxGeometry width="50" height="50" relative="1" as="geometry">
            <mxPoint x="-100" y="380" as="sourcePoint" />
            <mxPoint x="-50" y="330" as="targetPoint" />
          </mxGeometry>
        </mxCell>
        <mxCell id="Ax9v7E1OaU5Le98P53_Z-16" value="" style="endArrow=classic;html=1;rounded=0;exitX=0;exitY=0.5;exitDx=0;exitDy=0;entryX=0.5;entryY=0;entryDx=0;entryDy=0;" parent="1" source="CWHaBzjAPPrI5t0wA8sZ-5" target="Ax9v7E1OaU5Le98P53_Z-9" edge="1">
          <mxGeometry width="50" height="50" relative="1" as="geometry">
            <mxPoint x="200" y="490" as="sourcePoint" />
            <mxPoint x="70" y="530" as="targetPoint" />
          </mxGeometry>
        </mxCell>
        <mxCell id="Ax9v7E1OaU5Le98P53_Z-17" value="" style="endArrow=classic;html=1;rounded=0;entryX=0.5;entryY=0;entryDx=0;entryDy=0;exitX=0.5;exitY=1;exitDx=0;exitDy=0;" parent="1" source="PnV7mJvf609vmkWvOlgB-1" target="CWHaBzjAPPrI5t0wA8sZ-5" edge="1">
          <mxGeometry width="50" height="50" relative="1" as="geometry">
            <mxPoint x="200" y="370" as="sourcePoint" />
            <mxPoint x="430" y="310" as="targetPoint" />
          </mxGeometry>
        </mxCell>
        <mxCell id="Ax9v7E1OaU5Le98P53_Z-18" value="" style="endArrow=classic;html=1;rounded=0;exitX=1;exitY=0.5;exitDx=0;exitDy=0;entryX=0.5;entryY=0;entryDx=0;entryDy=0;" parent="1" source="CWHaBzjAPPrI5t0wA8sZ-5" target="Ax9v7E1OaU5Le98P53_Z-1" edge="1">
          <mxGeometry width="50" height="50" relative="1" as="geometry">
            <mxPoint x="-100" y="380" as="sourcePoint" />
            <mxPoint x="-50" y="330" as="targetPoint" />
          </mxGeometry>
        </mxCell>
        <mxCell id="Ax9v7E1OaU5Le98P53_Z-19" value="" style="endArrow=classic;html=1;rounded=0;exitX=1;exitY=0.5;exitDx=0;exitDy=0;entryX=0.5;entryY=0;entryDx=0;entryDy=0;" parent="1" source="Ax9v7E1OaU5Le98P53_Z-9" target="Ax9v7E1OaU5Le98P53_Z-5" edge="1">
          <mxGeometry width="50" height="50" relative="1" as="geometry">
            <mxPoint x="-90" y="390" as="sourcePoint" />
            <mxPoint x="-40" y="340" as="targetPoint" />
          </mxGeometry>
        </mxCell>
        <mxCell id="Ax9v7E1OaU5Le98P53_Z-20" value="" style="endArrow=classic;html=1;rounded=0;exitX=1;exitY=0.5;exitDx=0;exitDy=0;entryX=0.5;entryY=0;entryDx=0;entryDy=0;" parent="1" source="Ax9v7E1OaU5Le98P53_Z-8" target="PnV7mJvf609vmkWvOlgB-23" edge="1">
          <mxGeometry width="50" height="50" relative="1" as="geometry">
            <mxPoint x="-80" y="400" as="sourcePoint" />
            <mxPoint x="-30" y="350" as="targetPoint" />
          </mxGeometry>
        </mxCell>
        <mxCell id="Ax9v7E1OaU5Le98P53_Z-21" value="" style="endArrow=classic;html=1;rounded=0;exitX=0;exitY=0.5;exitDx=0;exitDy=0;entryX=0.5;entryY=0;entryDx=0;entryDy=0;" parent="1" source="Ax9v7E1OaU5Le98P53_Z-8" target="PnV7mJvf609vmkWvOlgB-24" edge="1">
          <mxGeometry width="50" height="50" relative="1" as="geometry">
            <mxPoint x="-70" y="410" as="sourcePoint" />
            <mxPoint x="-166" y="840" as="targetPoint" />
          </mxGeometry>
        </mxCell>
        <mxCell id="Ax9v7E1OaU5Le98P53_Z-24" value="예" style="text;strokeColor=none;align=center;fillColor=none;html=1;verticalAlign=middle;whiteSpace=wrap;rounded=0;" parent="1" vertex="1">
          <mxGeometry x="10" y="770" width="60" height="30" as="geometry" />
        </mxCell>
        <mxCell id="Ax9v7E1OaU5Le98P53_Z-27" value="예" style="text;strokeColor=none;align=center;fillColor=none;html=1;verticalAlign=middle;whiteSpace=wrap;rounded=0;" parent="1" vertex="1">
          <mxGeometry x="240" y="490" width="60" height="30" as="geometry" />
        </mxCell>
        <mxCell id="Ax9v7E1OaU5Le98P53_Z-28" value="예" style="text;strokeColor=none;align=center;fillColor=none;html=1;verticalAlign=middle;whiteSpace=wrap;rounded=0;" parent="1" vertex="1">
          <mxGeometry x="120" y="630" width="60" height="30" as="geometry" />
        </mxCell>
        <mxCell id="UtXY169Rgtx-sBA8utTQ-1" value="아니오" style="text;strokeColor=none;align=center;fillColor=none;html=1;verticalAlign=middle;whiteSpace=wrap;rounded=0;" parent="1" vertex="1">
          <mxGeometry x="-140" y="770" width="60" height="30" as="geometry" />
        </mxCell>
        <mxCell id="UtXY169Rgtx-sBA8utTQ-2" value="아니오" style="text;strokeColor=none;align=center;fillColor=none;html=1;verticalAlign=middle;whiteSpace=wrap;rounded=0;" parent="1" vertex="1">
          <mxGeometry x="-20" y="630" width="60" height="30" as="geometry" />
        </mxCell>
        <mxCell id="UtXY169Rgtx-sBA8utTQ-3" value="아니오" style="text;strokeColor=none;align=center;fillColor=none;html=1;verticalAlign=middle;whiteSpace=wrap;rounded=0;" parent="1" vertex="1">
          <mxGeometry x="110" y="490" width="60" height="30" as="geometry" />
        </mxCell>
        <mxCell id="PnV7mJvf609vmkWvOlgB-1" value="사용자 입력 받기" style="shape=parallelogram;perimeter=parallelogramPerimeter;whiteSpace=wrap;html=1;fixedSize=1;" vertex="1" parent="1">
          <mxGeometry x="140" y="300" width="120" height="60" as="geometry" />
        </mxCell>
        <mxCell id="PnV7mJvf609vmkWvOlgB-3" value="&lt;font style=&quot;font-size: 10px;&quot;&gt;킬로미터 입력 받기&lt;/font&gt;" style="shape=parallelogram;perimeter=parallelogramPerimeter;whiteSpace=wrap;html=1;fixedSize=1;" vertex="1" parent="1">
          <mxGeometry x="400" y="550" width="120" height="60" as="geometry" />
        </mxCell>
        <mxCell id="PnV7mJvf609vmkWvOlgB-4" value="&lt;font size=&quot;1&quot;&gt;마일 입력 받기&lt;/font&gt;" style="shape=parallelogram;perimeter=parallelogramPerimeter;whiteSpace=wrap;html=1;fixedSize=1;" vertex="1" parent="1">
          <mxGeometry x="294" y="690" width="120" height="60" as="geometry" />
        </mxCell>
        <mxCell id="PnV7mJvf609vmkWvOlgB-6" value="" style="endArrow=classic;html=1;rounded=0;exitX=0;exitY=0.5;exitDx=0;exitDy=0;entryX=0;entryY=0.5;entryDx=0;entryDy=0;" edge="1" parent="1" source="PnV7mJvf609vmkWvOlgB-5" target="PnV7mJvf609vmkWvOlgB-5">
          <mxGeometry width="50" height="50" relative="1" as="geometry">
            <mxPoint x="149" y="870" as="sourcePoint" />
            <mxPoint x="139" y="210" as="targetPoint" />
            <Array as="points" />
          </mxGeometry>
        </mxCell>
        <mxCell id="PnV7mJvf609vmkWvOlgB-5" value="다시 입력 요청" style="rounded=0;whiteSpace=wrap;html=1;" vertex="1" parent="1">
          <mxGeometry x="-226" y="960" width="120" height="60" as="geometry" />
        </mxCell>
        <mxCell id="PnV7mJvf609vmkWvOlgB-7" value="" style="endArrow=classic;html=1;rounded=0;exitX=0.5;exitY=1;exitDx=0;exitDy=0;entryX=0.5;entryY=0;entryDx=0;entryDy=0;" edge="1" parent="1" source="PnV7mJvf609vmkWvOlgB-24" target="PnV7mJvf609vmkWvOlgB-5">
          <mxGeometry width="50" height="50" relative="1" as="geometry">
            <mxPoint x="-166" y="910" as="sourcePoint" />
            <mxPoint x="440" y="760" as="targetPoint" />
          </mxGeometry>
        </mxCell>
        <mxCell id="PnV7mJvf609vmkWvOlgB-8" value="" style="endArrow=classic;html=1;rounded=0;exitX=1;exitY=0.5;exitDx=0;exitDy=0;entryX=0;entryY=0.5;entryDx=0;entryDy=0;" edge="1" parent="1" source="PnV7mJvf609vmkWvOlgB-3" target="PnV7mJvf609vmkWvOlgB-13">
          <mxGeometry width="50" height="50" relative="1" as="geometry">
            <mxPoint x="-210" y="470" as="sourcePoint" />
            <mxPoint x="680" y="450" as="targetPoint" />
          </mxGeometry>
        </mxCell>
        <mxCell id="PnV7mJvf609vmkWvOlgB-9" value="" style="endArrow=classic;html=1;rounded=0;exitX=1;exitY=0.5;exitDx=0;exitDy=0;" edge="1" parent="1" source="Ax9v7E1OaU5Le98P53_Z-5" target="PnV7mJvf609vmkWvOlgB-4">
          <mxGeometry width="50" height="50" relative="1" as="geometry">
            <mxPoint x="-200" y="480" as="sourcePoint" />
            <mxPoint x="-150" y="430" as="targetPoint" />
          </mxGeometry>
        </mxCell>
        <mxCell id="PnV7mJvf609vmkWvOlgB-10" value="" style="endArrow=classic;html=1;rounded=0;exitX=1;exitY=0.5;exitDx=0;exitDy=0;entryX=0;entryY=0.5;entryDx=0;entryDy=0;" edge="1" parent="1" source="Ax9v7E1OaU5Le98P53_Z-1" target="PnV7mJvf609vmkWvOlgB-3">
          <mxGeometry width="50" height="50" relative="1" as="geometry">
            <mxPoint x="-190" y="490" as="sourcePoint" />
            <mxPoint x="-140" y="440" as="targetPoint" />
          </mxGeometry>
        </mxCell>
        <mxCell id="PnV7mJvf609vmkWvOlgB-11" value="" style="endArrow=classic;html=1;rounded=0;exitX=1;exitY=0.5;exitDx=0;exitDy=0;entryX=0;entryY=0.5;entryDx=0;entryDy=0;" edge="1" parent="1" source="PnV7mJvf609vmkWvOlgB-4" target="PnV7mJvf609vmkWvOlgB-16">
          <mxGeometry width="50" height="50" relative="1" as="geometry">
            <mxPoint x="620" y="460" as="sourcePoint" />
            <mxPoint x="670" y="580" as="targetPoint" />
          </mxGeometry>
        </mxCell>
        <mxCell id="PnV7mJvf609vmkWvOlgB-13" value="1km = 0.6mile&lt;div&gt;&lt;span style=&quot;background-color: transparent; color: light-dark(rgb(0, 0, 0), rgb(255, 255, 255));&quot;&gt;비율로 변환&lt;/span&gt;&lt;/div&gt;" style="rounded=0;whiteSpace=wrap;html=1;" vertex="1" parent="1">
          <mxGeometry x="540" y="550" width="120" height="60" as="geometry" />
        </mxCell>
        <mxCell id="PnV7mJvf609vmkWvOlgB-16" value="1mile = 1.6km&amp;nbsp;&lt;div&gt;비율로 변환&lt;/div&gt;" style="rounded=0;whiteSpace=wrap;html=1;" vertex="1" parent="1">
          <mxGeometry x="440" y="690" width="120" height="60" as="geometry" />
        </mxCell>
        <mxCell id="PnV7mJvf609vmkWvOlgB-18" value="변환된 값 출력" style="shape=parallelogram;perimeter=parallelogramPerimeter;whiteSpace=wrap;html=1;fixedSize=1;" vertex="1" parent="1">
          <mxGeometry x="580" y="690" width="120" height="60" as="geometry" />
        </mxCell>
        <mxCell id="PnV7mJvf609vmkWvOlgB-19" value="변환된 값 출력" style="shape=parallelogram;perimeter=parallelogramPerimeter;whiteSpace=wrap;html=1;fixedSize=1;" vertex="1" parent="1">
          <mxGeometry x="680" y="550" width="120" height="60" as="geometry" />
        </mxCell>
        <mxCell id="PnV7mJvf609vmkWvOlgB-21" value="" style="endArrow=classic;html=1;rounded=0;exitX=1;exitY=0.5;exitDx=0;exitDy=0;entryX=0;entryY=0.5;entryDx=0;entryDy=0;" edge="1" parent="1" source="PnV7mJvf609vmkWvOlgB-16" target="PnV7mJvf609vmkWvOlgB-18">
          <mxGeometry width="50" height="50" relative="1" as="geometry">
            <mxPoint x="420" y="700" as="sourcePoint" />
            <mxPoint x="470" y="660" as="targetPoint" />
          </mxGeometry>
        </mxCell>
        <mxCell id="PnV7mJvf609vmkWvOlgB-22" value="" style="endArrow=classic;html=1;rounded=0;exitX=1;exitY=0.5;exitDx=0;exitDy=0;entryX=0;entryY=0.5;entryDx=0;entryDy=0;" edge="1" parent="1" source="PnV7mJvf609vmkWvOlgB-13" target="PnV7mJvf609vmkWvOlgB-19">
          <mxGeometry width="50" height="50" relative="1" as="geometry">
            <mxPoint x="420" y="700" as="sourcePoint" />
            <mxPoint x="470" y="650" as="targetPoint" />
          </mxGeometry>
        </mxCell>
        <mxCell id="PnV7mJvf609vmkWvOlgB-23" value="&quot;프로그램 종료&quot;&lt;div&gt;메시지 출력&lt;/div&gt;" style="shape=parallelogram;perimeter=parallelogramPerimeter;whiteSpace=wrap;html=1;fixedSize=1;" vertex="1" parent="1">
          <mxGeometry x="19" y="845" width="120" height="60" as="geometry" />
        </mxCell>
        <mxCell id="PnV7mJvf609vmkWvOlgB-24" value="&quot;잘못된 입력&quot;&lt;div&gt;메시지 출력&lt;/div&gt;" style="shape=parallelogram;perimeter=parallelogramPerimeter;whiteSpace=wrap;html=1;fixedSize=1;" vertex="1" parent="1">
          <mxGeometry x="-226" y="845" width="120" height="60" as="geometry" />
        </mxCell>
        <mxCell id="PnV7mJvf609vmkWvOlgB-25" value="" style="endArrow=classic;html=1;rounded=0;exitX=0.5;exitY=1;exitDx=0;exitDy=0;entryX=0.5;entryY=0;entryDx=0;entryDy=0;" edge="1" parent="1" source="PnV7mJvf609vmkWvOlgB-23" target="Ax9v7E1OaU5Le98P53_Z-7">
          <mxGeometry width="50" height="50" relative="1" as="geometry">
            <mxPoint x="420" y="700" as="sourcePoint" />
            <mxPoint x="470" y="650" as="targetPoint" />
          </mxGeometry>
        </mxCell>
      </root>
    </mxGraphModel>
  </diagram>
</mxfile>
